inDegrees=yes
name=ik_S51_A04_T02
DataType=double
version=3
OpenSimVersion=4.3-2021-08-27-4bc7ad9
endheader
time	pelvis_tilt	pelvis_list	pelvis_rotation	pelvis_tx	pelvis_ty	pelvis_tz	hip_flexion_r	hip_adduction_r	hip_rotation_r	knee_angle_r	knee_angle_r_beta	ankle_angle_r	subtalar_angle_r	mtp_angle_r	hip_flexion_l	hip_adduction_l	hip_rotation_l	knee_angle_l	knee_angle_l_beta	ankle_angle_l	subtalar_angle_l	mtp_angle_l	lumbar_extension	lumbar_bending	lumbar_rotation	arm_flex_r	arm_add_r	arm_rot_r	elbow_flex_r	pro_sup_r	wrist_flex_r	wrist_dev_r	arm_flex_l	arm_add_l	arm_rot_l	elbow_flex_l	pro_sup_l	wrist_flex_l	wrist_dev_l
5.339999999999974	20.48571597422114	8.367320727679479	29.20340513005578	0	0.9399999999999999	0	36.27439880571274	-43.76170378070334	5.981961577639213	65.76922374186245	1.147889500776325	0	0	0	50.00531183535968	-8.255457084103748	-13.26323169102719	76.30005714559263	1.331687216650418	0	0	0	0	0	0	10.77252190833138	-10.77252190833137	1.882589385928373	42.20442496153938	88.11741072359301	0	0	10.77252190833138	-10.77252190833137	1.882589385928373	42.20442496153938	88.11741072301136	0	0
5.359999999999974	20.013569726347	8.157648818157568	29.22573681201163	0	0.9399999999999999	0	36.94544393844251	-43.78520807930369	5.906560826428125	65.98345623379265	1.151628563125259	0	0	0	50.79175756257104	-8.408081706137072	-13.36974284063329	76.5150961834063	1.335440355880587	0	0	0	0	0	0	10.78419403945924	-10.78419403945924	1.884577994336099	42.23833394671112	88.11542211530015	0	0	10.78419403945924	-10.78419403945924	1.884577994336099	42.23833394671112	88.11542211471902	0	0
5.379999999999973	19.5534679098465	7.918935464152309	29.33169555629117	0	0.9399999999999999	0	37.46389252618819	-43.82704013020877	5.616594865121036	66.09120306456758	1.153509100080871	0	0	0	51.33241077888501	-8.342550329976188	-13.39795521436732	76.65026953783237	1.337799575976287	0	0	0	0	0	0	10.78839506852171	-10.7883950685217	1.885289426602153	42.25040385098095	88.11471068307523	0	0	10.78839506852171	-10.7883950685217	1.885289426602153	42.25040385098095	88.11471068249423	0	0
5.399999999999973	19.2733018892805	7.823775679782043	29.411744282524	0	0.9399999999999999	0	37.8478737612335	-43.85849860309448	5.359914478185564	66.44284720793449	1.159646448177978	0	0	0	51.68776110676404	-8.105400195859408	-13.59851975600022	77.02088734292757	1.344268076941713	0	0	0	0	0	0	10.79750158206354	-10.79750158206353	1.886848027543388	42.27706408168589	88.11315208222418	0	0	10.79750158206354	-10.79750158206353	1.886848027543388	42.27706408168589	88.11315208164355	0	0
5.419999999999972	17.72651661633627	7.180521410601036	29.87957610161303	0	0.9399999999999999	0	39.57974083368715	-44.09920921892184	4.952672114371595	66.82731366225237	1.166356653669294	0	0	0	53.41799596853919	-7.685677480710317	-13.74420966270231	77.27692365994127	1.348736753678282	0	0	0	0	0	0	10.81172069983095	-10.81172069983094	1.889270788796282	42.31832683730332	88.11072932111141	0	0	10.81172069983095	-10.81172069983094	1.889270788796282	42.31832683730332	88.11072932053131	0	0
5.439999999999972	16.98904134891622	6.872844172706207	30.12438055665016	0	0.9399999999999999	0	40.3914562346078	-44.10115481429113	4.545933955490835	67.00237289333599	1.169412013637712	0	0	0	54.2662715487304	-7.494016672261851	-13.76173394599335	77.3282169547725	1.349631990557283	0	0	0	0	0	0	10.81896948601977	-10.81896948601976	1.890496054522758	42.33905117575564	88.10950405545559	0	0	10.81896948601977	-10.81896948601976	1.890496054522758	42.33905117575564	88.10950405487586	0	0
5.459999999999972	16.08810968311763	6.530893732674045	30.30904683705132	0	0.9399999999999999	0	41.44640704158741	-44.21137342223943	4.676713415101468	67.27871021293957	1.174235009710931	0	0	0	55.25884535299897	-7.357788798516147	-13.81972291001881	77.59778437244918	1.35433682955184	0	0	0	0	0	0	10.82673337249315	-10.82673337249314	1.891820928845418	42.36164083768006	88.10817918120958	0	0	10.82673337249315	-10.82673337249314	1.891820928845418	42.36164083768006	88.10817918063007	0	0
5.479999999999971	15.59671021756257	6.309940753375377	30.47248635709189	0	0.9399999999999999	0	41.93475013892738	-44.08129640711263	4.535925714665551	67.42387731835997	1.176768653666106	0	0	0	55.77666624503706	-7.082173171694294	-13.94956234840052	77.61886633696368	1.354704779245407	0	0	0	0	0	0	10.8307244926413	-10.83072449264129	1.892496476585775	42.37308378177282	88.10750363350816	0	0	10.8307244926413	-10.83072449264129	1.892496476585775	42.37308378177282	88.10750363292888	0	0
5.499999999999971	14.54780009695209	5.908042655175453	30.66846257553051	0	0.9399999999999999	0	43.19713306490844	-44.03911523593161	4.528220353229468	67.68943307986777	1.181403476052058	0	0	0	56.79664550531431	-6.868804933181493	-14.16265502598462	77.82059911158879	1.358225680371798	0	0	0	0	0	0	10.83792590338295	-10.83792590338294	1.893723811393876	42.39398264699293	88.10627629877108	0	0	10.83792590338295	-10.83792590338294	1.893723811393876	42.39398264699293	88.10627629819201	0	0
5.51999999999997	12.75983920659762	5.191621228113105	31.01396748567131	0	0.9399999999999999	0	45.17681193328566	-44.25165368690637	4.612049876209441	67.92311097281969	1.185481924673192	0	0	0	58.53319218928071	-6.542203879426657	-14.36845673060348	77.86695852474111	1.359034804770599	0	0	0	0	0	0	10.85233884356323	-10.85233884356322	1.896189739389302	42.43607155000853	88.1038103709183	0	0	10.85233884356323	-10.85233884356322	1.896189739389302	42.43607155000853	88.10381037033972	0	0
5.53999999999997	12.0334213559447	4.88613228640737	31.10542822085817	0	0.9399999999999999	0	45.93669954222605	-44.19014954778328	4.786905219837699	68.05814973249649	1.187838795647362	0	0	0	59.12809852598171	-6.335827116292938	-14.43416106137273	77.69673234966045	1.356063797542365	0	0	0	0	0	0	10.85967034521721	-10.8596703452172	1.897444398875684	42.45749045617231	88.10255571150451	0	0	10.85967034521721	-10.8596703452172	1.897444398875684	42.45749045617231	88.10255571092618	0	0
5.559999999999969	10.54413083472457	4.276231261967878	31.28968714003107	0	0.9399999999999999	0	47.52540890852586	-44.15742949023369	5.032965140714377	68.13764144890335	1.189226187826723	0	0	0	60.49403115784938	-5.991233696484228	-14.6247364694468	77.67241525047666	1.355639384097074	0	0	0	0	0	0	10.86863749125686	-10.86863749125685	1.89897855835588	42.48366879759718	88.10102155211305	0	0	10.86863749125686	-10.86863749125685	1.89897855835588	42.48366879759718	88.10102155153504	0	0
5.579999999999969	9.00696099888158	3.656479278264239	31.49058156718425	0	0.9399999999999999	0	49.09916063962713	-44.19347231853457	5.168272790625782	68.06337095550542	1.187929923179848	0	0	0	62.11180923370752	-5.731521429540853	-14.81719691175629	77.8219203370698	1.358248740106603	0	0	0	0	0	0	10.88082449709155	-10.88082449709154	1.901061091638339	42.51914771759653	88.0989390189511	0	0	10.88082449709155	-10.88082449709154	1.901061091638339	42.51914771759653	88.09893901837346	0	0
5.599999999999969	7.171016317012115	2.863327267278845	31.61690120863169	0	0.9399999999999999	0	51.00085333677188	-44.26820688065704	5.240959286014546	68.04583946388207	1.187623940928235	0	0	0	63.83766435077406	-5.449149724160452	-15.13103928326283	77.72871705157449	1.356622035901034	0	0	0	0	0	0	10.89299077085572	-10.89299077085571	1.903140432628976	42.55456420354536	88.09685967808075	0	0	10.89299077085572	-10.89299077085571	1.903140432628976	42.55456420354536	88.09685967750346	0	0
5.619999999999968	6.171136782442045	2.469102010145322	31.73756913517214	0	0.9399999999999999	0	52.16552451683222	-44.42391798374301	5.348425826324995	68.258086767539	1.191328355205529	0	0	0	64.65775193790401	-5.234234281206852	-15.40626447326319	77.62230137518965	1.354764731972382	0	0	0	0	0	0	10.90314431904521	-10.90314431904521	1.904876465398779	42.58414238609309	88.09512364541138	0	0	10.90314431904521	-10.90314431904521	1.904876465398779	42.58414238609309	88.09512364483446	0	0
5.639999999999968	1.756391916000151	0.7336682166624506	32.25212066077928	0	0.9399999999999999	0	56.86944568481574	-44.85542220584449	5.435623388737734	68.17311174512346	1.189845261282422	0	0	0	68.92092983851279	-4.501794325639869	-16.28807193090368	77.4203155925813	1.351239415023649	0	0	0	0	0	0	11.13666858990604	-11.13666858990603	1.939856289242737	43.11512306620421	88.06014382354547	0	0	11.13666858990604	-11.13666858990603	1.939856289242737	43.11512306620421	88.06014382297506	0	0
5.659999999999967	-0.3272110114434262	-0.09770368387746384	32.48618792065319	0	0.9399999999999999	0	58.44472472331113	-44.81904204030879	5.229964653535349	67.70452957569344	1.18166695960973	0	0	0	70.67547244877632	-4.09440970877086	-16.75658794166548	77.20579953210805	1.347495403469983	0	0	0	0	0	0	11.23007862692118	-11.23007862692117	1.953919992379215	43.32960178427912	88.04608012120499	0	0	11.23007862692118	-11.23007862692117	1.953919992379215	43.32960178427912	88.0460801206372	0	0
5.679999999999967	-2.413082184794507	-1.007896233573498	32.7110098570736	0	0.9399999999999999	0	60.87275177740764	-45.16050499050078	5.482443908553832	67.80710414746304	1.183457223615933	0	0	0	72.45487118654314	-3.645634253101578	-17.09943770001803	77.02248806687777	1.34429601484506	0	0	0	0	0	0	11.24482243136719	-11.24482243136718	1.956428628584353	43.37188953824214	88.04357148514482	0	0	11.24482243136719	-11.24482243136718	1.956428628584353	43.37188953824214	88.04357148457747	0	0
5.699999999999966	-3.475795453830335	-1.489820314660176	32.72329173383094	0	0.9399999999999999	0	61.75277516939138	-44.98930585179495	5.44862755141414	67.8681375357997	1.184522457196056	0	0	0	73.06291007872224	-3.359781325040886	-17.73106534257694	76.69135546761721	1.338516660727276	0	0	0	0	0	0	11.25285534215391	-11.25285534215391	1.957795986832737	43.39494452925083	88.04220412697538	0	0	11.25285534215391	-11.25285534215391	1.957795986832737	43.39494452925083	88.04220412640832	0	0
5.719999999999966	-6.150974158623884	-2.771748023144992	32.81290461083773	0	0.9399999999999999	0	64.44734193507621	-44.92753721370083	5.678219601144647	67.43770862256524	1.177010055464333	0	0	0	74.92946999710639	-2.800848590231833	-17.98407256337596	75.81678187014495	1.323252471900373	0	0	0	0	0	0	11.36695904899395	-11.36695904899394	1.974821180420886	43.65240797209258	88.02517893434926	0	0	11.36695904899395	-11.36695904899394	1.974821180420886	43.65240797209258	88.02517893378533	0	0
5.739999999999966	-7.624723890214756	-3.50013367351119	32.84732181925894	0	0.9399999999999999	0	65.71674246750375	-44.74096991030549	5.597990767862707	67.4351086139585	1.176964676753566	0	0	0	75.87037071621413	-2.4628074004949	-18.22094983674735	75.32921792108182	1.314742875675196	0	0	0	0	0	0	11.37493270878775	-11.37493270878774	1.976175774816927	43.67516041889317	88.02382434003147	0	0	11.37493270878775	-11.37493270878774	1.976175774816927	43.67516041889317	88.02382433946774	0	0
5.759999999999965	-8.221420368128129	-3.784749223197997	32.82087295408881	0	0.9399999999999999	0	65.81647216093685	-44.41658501872853	5.302200496399059	67.38047601485967	1.176011158020369	0	0	0	75.88731586795406	-2.269643363545959	-18.3076734093542	75.2582450928665	1.313504166143386	0	0	0	0	0	0	11.37896924715161	-11.3789692471516	1.976859524367658	43.68661540323725	88.0231405905202	0	0	11.37896924715161	-11.3789692471516	1.976859524367658	43.68661540323725	88.0231405899566	0	0
5.779999999999965	-9.23603048894155	-4.386076859703222	32.75212960078579	0	0.9399999999999999	0	66.22423320291475	-44.17536421140748	4.884061324569749	67.0928176285326	1.170990572057988	0	0	0	76.37409161408691	-2.115902865206981	-18.43608418037175	74.5349866446024	1.300880924878312	0	0	0	0	0	0	11.38471361901664	-11.38471361901663	1.977834414527439	43.70297343301155	88.02216570041676	0	0	11.38471361901664	-11.38471361901663	1.977834414527439	43.70297343301155	88.02216569985333	0	0
5.799999999999964	-10.23105136469411	-4.961687883554649	32.65634363467019	0	0.9399999999999999	0	66.41610614483149	-43.90628933792652	4.403396361180716	66.71917945534773	1.164469355724775	0	0	0	77.48726224985514	-2.102360113491316	-18.44964942592192	74.70726544678411	1.303887757207775	0	0	0	0	0	0	11.39242040165155	-11.39242040165154	1.979142822332108	43.72492929477582	88.02085729268764	0	0	11.39242040165155	-11.39242040165154	1.979142822332108	43.72492929477582	88.02085729212448	0	0
